<svg xmlns="http://www.w3.org/2000/svg" xmlns:xlink="http://www.w3.org/1999/xlink" width="1280" zoomAndPan="magnify" viewBox="0 0 960 599.999999" height="800" preserveAspectRatio="xMidYMid meet" version="1.0"><defs><clipPath id="3870ffa07c"><path d="M 0 0 L 315 0 L 315 314.773438 L 0 314.773438 Z M 0 0 " clip-rule="nonzero"/></clipPath><clipPath id="b684267f9a"><path d="M 0 0 L 274.671875 0 L 274.671875 282 L 0 282 Z M 0 0 " clip-rule="nonzero"/></clipPath><clipPath id="d624a18b78"><path d="M 670.605469 304.574219 L 960 304.574219 L 960 600 L 670.605469 600 Z M 670.605469 304.574219 " clip-rule="nonzero"/></clipPath><clipPath id="0ee30daf71"><path d="M 699.949219 341.464844 L 960 341.464844 L 960 600 L 699.949219 600 Z M 699.949219 341.464844 " clip-rule="nonzero"/></clipPath></defs><rect x="-96" width="1152" fill="#ffffff" y="-60" height="719.999999" fill-opacity="1"/><rect x="-96" width="1152" fill="#ffffff" y="-60" height="719.999999" fill-opacity="1"/><g clip-path="url(#3870ffa07c)"><path fill="#dbbd74" d="M 0.0390625 -0.226562 L 315.300781 -0.226562 C 304.550781 -0.222656 293.828125 0.320312 283.132812 1.402344 C 272.617188 2.472656 262.179688 4.0625 251.820312 6.179688 C 241.664062 8.257812 231.496094 10.875 221.601562 13.949219 C 211.820312 16.992188 202.070312 20.5625 192.628906 24.554688 C 173.832031 32.511719 155.980469 42.203125 139.066406 53.628906 C 122.28125 64.976562 106.722656 77.8125 92.394531 92.136719 C 78.070312 106.464844 65.238281 122.019531 53.890625 138.804688 C 42.464844 155.71875 32.773438 173.574219 24.816406 192.371094 C 20.820312 201.8125 17.253906 211.558594 14.210938 221.339844 C 11.132812 231.234375 8.519531 241.402344 6.441406 251.5625 C 4.324219 261.917969 2.730469 272.355469 1.664062 282.871094 C 0.578125 293.59375 0.0351562 304.339844 0.0390625 315.113281 Z M 0.0390625 -0.226562 " fill-opacity="1" fill-rule="nonzero"/></g><g clip-path="url(#b684267f9a)"><path fill="#107d9c" d="M -11.042969 -3.75 L 274.546875 -3.75 C 264.808594 -3.746094 255.09375 -3.253906 245.40625 -2.273438 C 235.878906 -1.304688 226.421875 0.136719 217.042969 2.054688 C 207.839844 3.9375 198.628906 6.304688 189.664062 9.09375 C 180.804688 11.847656 171.972656 15.082031 163.421875 18.699219 C 146.394531 25.90625 130.21875 34.6875 114.898438 45.035156 C 99.695312 55.316406 85.601562 66.941406 72.621094 79.917969 C 59.644531 92.898438 48.019531 106.988281 37.742188 122.195312 C 27.390625 137.515625 18.613281 153.6875 11.402344 170.714844 C 7.785156 179.269531 4.554688 188.097656 1.796875 196.960938 C -0.992188 205.921875 -3.359375 215.132812 -5.242188 224.335938 C -7.160156 233.71875 -8.601562 243.171875 -9.570312 252.699219 C -10.550781 262.410156 -11.042969 272.144531 -11.042969 281.90625 Z M -11.042969 -3.75 " fill-opacity="1" fill-rule="nonzero"/></g><g clip-path="url(#d624a18b78)"><path fill="#dbbd74" d="M 985.566406 619.574219 L 670.300781 619.574219 C 681.050781 619.570312 691.773438 619.027344 702.472656 617.945312 C 712.988281 616.875 723.425781 615.28125 733.78125 613.167969 C 743.941406 611.085938 754.109375 608.472656 764.003906 605.394531 C 773.785156 602.351562 783.535156 598.785156 792.972656 594.792969 C 811.769531 586.832031 829.625 577.140625 846.539062 565.71875 C 863.324219 554.371094 878.878906 541.535156 893.207031 527.210938 C 907.53125 512.882812 920.367188 497.328125 931.714844 480.542969 C 943.140625 463.628906 952.832031 445.773438 960.789062 426.976562 C 964.78125 417.535156 968.347656 407.789062 971.394531 398.003906 C 974.46875 388.113281 977.085938 377.945312 979.164062 367.785156 C 981.28125 357.429688 982.871094 346.992188 983.941406 336.472656 C 985.023438 325.753906 985.566406 315.007812 985.566406 304.234375 Z M 985.566406 619.574219 " fill-opacity="1" fill-rule="nonzero"/></g><g clip-path="url(#0ee30daf71)"><path fill="#107d9c" d="M 985.570312 627.121094 L 699.980469 627.121094 C 709.71875 627.117188 719.433594 626.625 729.125 625.644531 C 738.648438 624.675781 748.105469 623.234375 757.488281 621.316406 C 766.6875 619.433594 775.898438 617.066406 784.863281 614.277344 C 793.726562 611.519531 802.554688 608.289062 811.105469 604.671875 C 828.132812 597.460938 844.308594 588.683594 859.628906 578.335938 C 874.835938 568.054688 888.925781 556.429688 901.90625 543.453125 C 914.882812 530.472656 926.507812 516.382812 936.789062 501.175781 C 947.136719 485.855469 955.914062 469.679688 963.125 452.652344 C 966.742188 444.101562 969.972656 435.273438 972.730469 426.410156 C 975.519531 417.449219 977.886719 408.238281 979.769531 399.035156 C 981.6875 389.652344 983.128906 380.195312 984.097656 370.671875 C 985.082031 360.960938 985.570312 351.222656 985.570312 341.464844 Z M 985.570312 627.121094 " fill-opacity="1" fill-rule="nonzero"/></g></svg>