<svg xmlns="http://www.w3.org/2000/svg" xmlns:xlink="http://www.w3.org/1999/xlink" width="615" zoomAndPan="magnify" viewBox="0 0 461.25 88.499997" height="118" preserveAspectRatio="xMidYMid meet" version="1.0"><defs><filter x="0%" y="0%" width="100%" height="100%" id="349d71f723"><feColorMatrix values="0 0 0 0 1 0 0 0 0 1 0 0 0 0 1 0 0 0 1 0" color-interpolation-filters="sRGB"/></filter><clipPath id="04e09190ae"><path d="M 212.875 0 L 459.144531 0 L 459.144531 30.347656 L 212.875 30.347656 Z M 212.875 0 " clip-rule="nonzero"/></clipPath><clipPath id="7eb943b897"><path d="M 212.875 57.484375 L 459.144531 57.484375 L 459.144531 87.832031 L 212.875 87.832031 Z M 212.875 57.484375 " clip-rule="nonzero"/></clipPath><clipPath id="f856739377"><path d="M 0.921875 27 L 214 27 L 214 58 L 0.921875 58 Z M 0.921875 27 " clip-rule="nonzero"/></clipPath><mask id="040d186b6b"><g filter="url(#349d71f723)"><rect x="-46.125" width="553.5" fill="#000000" y="-8.85" height="106.199996" fill-opacity="0.63"/></g></mask><clipPath id="8ee3dc2e55"><path d="M 0.921875 0.246094 L 212.875 0.246094 L 212.875 30.484375 L 0.921875 30.484375 Z M 0.921875 0.246094 " clip-rule="nonzero"/></clipPath><clipPath id="84cc749c34"><rect x="0" width="214" y="0" height="31"/></clipPath></defs><g clip-path="url(#04e09190ae)"><path fill="#107d9c" d="M 212.875 0 L 459.085938 0 L 459.085938 30.347656 L 212.875 30.347656 Z M 212.875 0 " fill-opacity="1" fill-rule="nonzero"/></g><g clip-path="url(#7eb943b897)"><path fill="#107d9c" d="M 212.875 57.484375 L 459.085938 57.484375 L 459.085938 87.832031 L 212.875 87.832031 Z M 212.875 57.484375 " fill-opacity="1" fill-rule="nonzero"/></g><g clip-path="url(#f856739377)"><g mask="url(#040d186b6b)"><g transform="matrix(1, 0, 0, 1, 0, 27)"><g clip-path="url(#84cc749c34)"><g clip-path="url(#8ee3dc2e55)"><path fill="#107d9c" d="M 0.921875 0.246094 L 212.925781 0.246094 L 212.925781 30.484375 L 0.921875 30.484375 Z M 0.921875 0.246094 " fill-opacity="1" fill-rule="nonzero"/></g></g></g></g></g></svg>